<svg width="87" height="28" viewBox="0 0 87 28" fill="none" xmlns="http://www.w3.org/2000/svg">
<path fill-rule="evenodd" clip-rule="evenodd" d="M24.9734 19.6142L24.9734 19.6143C25.3603 20.6 25.4463 21.5429 25.3173 22.4857C25.0164 24.4572 23.7269 26.1714 21.8355 26.9429C21.1478 27.2429 20.417 27.3714 19.6433 27.3714C19.4284 27.3714 19.1705 27.3714 18.9555 27.3286C18.0528 27.2429 17.1502 26.9429 16.2475 26.4286C15.1728 25.8286 14.0982 24.9286 12.8946 23.6429C11.691 24.9286 10.6594 25.8286 9.54179 26.4286C8.63911 26.9429 7.73642 27.2 6.83373 27.3286C6.72627 27.3286 6.60806 27.3393 6.48985 27.35C6.37164 27.3607 6.25344 27.3714 6.14597 27.3714C5.37224 27.3714 4.64149 27.2429 3.95373 26.9429C2.10538 26.1714 0.729853 24.5 0.428957 22.4857C0.300002 21.5 0.428957 20.5572 0.772838 19.6143C0.901793 19.2286 1.03075 18.9286 1.1597 18.6286C1.37463 18.1572 1.58955 17.6857 1.76149 17.2572L1.80448 17.2143C3.69582 13.1857 5.67314 9.1143 7.73642 5.08572L7.82239 4.9143C8.03732 4.52858 8.25224 4.10001 8.46717 3.67144C8.52503 3.58079 8.58288 3.48855 8.64135 3.39535L8.64143 3.39523L8.64145 3.3952C8.88702 3.00371 9.14339 2.59503 9.45582 2.2143C10.3585 1.18572 11.5621 0.585724 12.8946 0.585724C14.1842 0.585724 15.4307 1.18572 16.2905 2.25715C16.7203 2.72858 17.0212 3.24287 17.2791 3.7143L17.2792 3.71442L17.2792 3.71443C17.4941 4.14296 17.709 4.57148 17.9239 4.95715L18.0099 5.12858C20.1161 9.15715 22.0934 13.2286 23.9418 17.2572H23.9848C24.1567 17.6857 24.3716 18.1572 24.5866 18.6286C24.7155 18.9285 24.8444 19.2713 24.9734 19.6141L24.9734 19.6141L24.9734 19.6142ZM45.7352 7.3143C45.7352 8.30001 44.9615 9.07144 43.9728 9.07144C42.9842 9.07144 42.2105 8.30001 42.2105 7.3143C42.2105 6.32858 42.9842 5.55715 43.9728 5.55715C45.0045 5.60001 45.7352 6.37144 45.7352 7.3143ZM38.5567 10.8286V11.2572C38.5567 11.2572 37.74 10.1857 35.9346 10.1857C33.0116 10.1857 30.7334 12.4143 30.7334 15.5C30.7334 18.5429 33.0116 20.8143 35.9346 20.8143C37.74 20.8143 38.5567 19.7 38.5567 19.7V20.1714C38.5567 20.3857 38.7287 20.5572 38.9436 20.5572H41.1358V10.4429H38.9436C38.6857 10.4429 38.5567 10.6143 38.5567 10.8286ZM36.3645 18.3714C37.3531 18.3714 38.1699 17.8572 38.5567 17.2572V13.6572C38.1699 13.1 37.3102 12.5429 36.3645 12.5429C34.6451 12.5429 33.3125 13.6143 33.3125 15.4572C33.3125 17.3 34.6451 18.3714 36.3645 18.3714ZM45.2624 10.4429V20.5143H42.6833V10.4429H45.2624ZM78.6188 11.2572C78.6188 11.2572 79.4785 10.1857 81.2409 10.1857C84.1639 10.1857 86.4421 12.4143 86.4421 15.4572C86.4421 18.5 84.1639 20.7714 81.2409 20.7714C79.4355 20.7714 78.6188 19.6572 78.6188 19.6572V20.1286C78.6188 20.3429 78.4469 20.5143 78.2319 20.5143H76.0397V5.60001H78.6188V11.2572ZM80.8111 18.3286C79.8224 18.3286 79.0487 17.8143 78.6188 17.2143V13.6143C79.0057 13.0572 79.8654 12.5 80.8111 12.5C82.5305 12.5 83.863 13.5714 83.863 15.4143C83.863 17.2572 82.5305 18.3286 80.8111 18.3286ZM74.7072 20.5572V14.5572C74.7072 12.8429 74.3633 11.9 73.5036 11.1714C72.7299 10.5286 71.7842 10.1857 70.6666 10.1857C69.6779 10.1857 68.6893 10.4857 67.9155 11.2572V10.8286C67.9155 10.6143 67.7436 10.4429 67.5287 10.4429H65.4654V20.5572H68.0445V13.5286C68.5603 12.9286 69.377 12.5429 70.1507 12.5429C71.5693 12.5429 72.1281 13.1857 72.1281 14.8572V20.5572H74.7072ZM59.1896 10.1857C57.4272 10.1857 56.5675 11.2572 56.5675 11.2572V5.60001H53.9884V20.5143H56.1806C56.3955 20.5143 56.5675 20.3429 56.5675 20.1286V19.6572C56.5675 19.6572 57.3842 20.7714 59.1896 20.7714C62.1125 20.7714 64.3907 18.5 64.3907 15.4572C64.4337 12.4143 62.1555 10.1857 59.1896 10.1857ZM56.5675 17.2143C56.9973 17.8143 57.771 18.3286 58.7597 18.3286C60.4791 18.3286 61.8116 17.2572 61.8116 15.4143C61.8116 13.5714 60.4791 12.5 58.7597 12.5C57.814 12.5 56.9543 13.0572 56.5675 13.6143V17.2143ZM51.7961 10.1857C52.5699 10.1857 52.9997 10.3143 52.9997 10.3143V12.7143C52.9997 12.7143 50.8504 11.9857 49.5179 13.5286V20.5572H46.9388V10.4429H49.131C49.346 10.4429 49.5179 10.6143 49.5179 10.8286V11.2572C49.9478 10.7 50.9794 10.1857 51.7961 10.1857ZM12.8516 20.9857C11.3902 19.1429 10.4445 17.4286 10.1436 16.0143C10.0146 15.4143 9.97164 14.8572 10.0576 14.3857C10.1006 13.9572 10.2725 13.5714 10.4875 13.2714C11.0033 12.5429 11.863 12.0714 12.8516 12.0714C13.8403 12.0714 14.743 12.5 15.2158 13.2714C15.4307 13.6143 15.6027 13.9572 15.6457 14.3857C15.7316 14.8572 15.6887 15.4143 15.5597 16.0143C15.2588 17.4286 14.3131 19.1429 12.8516 20.9857ZM21.1478 25.4C22.4803 24.8857 23.426 23.6857 23.5979 22.2714C23.6839 21.5429 23.5979 20.9 23.469 20.2143C23.4224 20.0751 23.3633 19.9359 23.2984 19.7831C23.2434 19.6536 23.1842 19.5144 23.1251 19.3572C23.0176 19.1429 22.9209 18.9179 22.8242 18.6929C22.7275 18.4679 22.6307 18.2429 22.5233 18.0286V17.9857C20.6749 14 18.6976 9.92858 16.6343 5.94287L16.5484 5.77144C16.3334 5.34287 16.1185 4.9143 15.9036 4.52858C15.6887 4.10001 15.4307 3.67144 15.1299 3.32858C14.571 2.68572 13.7973 2.34287 12.9806 2.34287C12.1639 2.34287 11.3902 2.68572 10.8313 3.32858C10.5304 3.7143 10.2725 4.10001 10.0576 4.52858C9.84269 4.95715 9.62776 5.38572 9.41284 5.77144L9.32687 5.94287C7.2206 9.92858 5.24329 14 3.39493 17.9857L3.35194 18.0286C3.13702 18.4572 2.92209 18.9286 2.75015 19.3572C2.6212 19.6572 2.49224 19.9572 2.40627 20.2143C2.10538 20.9857 2.06239 21.6286 2.14836 22.3143C2.3203 23.6857 3.26597 24.8857 4.59851 25.4429C5.2003 25.6572 5.88806 25.7857 6.61881 25.7C7.30657 25.6143 7.99433 25.4 8.68209 25.0143C9.62776 24.4572 10.6164 23.6429 11.734 22.4C9.97164 20.2143 8.85403 18.2 8.46717 16.4429C8.25224 15.6286 8.20926 14.8572 8.33821 14.1714C8.46717 13.4857 8.68209 12.8857 9.06896 12.3286C9.88567 11.1714 11.3042 10.4429 12.8516 10.4429C14.3991 10.4429 15.8176 11.1286 16.6343 12.3286C17.0212 12.8857 17.2361 13.4857 17.3651 14.1714C17.451 14.8572 17.4081 15.6286 17.2361 16.4429C16.8063 18.2 15.7316 20.1714 13.9693 22.3572C15.0869 23.6 16.0325 24.4143 17.0212 24.9714C17.7519 25.3572 18.3967 25.5714 19.0845 25.6572C19.8152 25.7429 20.503 25.6572 21.1478 25.4Z" fill="white"/>
</svg>
