<svg width="87" height="24" viewBox="0 0 87 24" fill="none" xmlns="http://www.w3.org/2000/svg">
<path fill-rule="evenodd" clip-rule="evenodd" d="M12.4392 22.3131C11.6278 22.4463 10.8165 22.5294 9.98388 22.6147C9.48659 22.6657 8.98174 22.7175 8.46481 22.7811L4.31761 10.7833V23.2916C3.02161 23.4193 1.85521 23.5895 0.602409 23.8022V0.870182H4.05841L8.76721 13.8891V0.870182H12.4392V22.3131ZM19.6104 9.29418C20.3402 9.29418 21.2624 9.27188 22.1627 9.25012L22.1628 9.25011C23.0211 9.22936 23.8595 9.20909 24.492 9.20909V12.7829C22.8936 12.7829 20.9928 12.7829 19.6104 12.868V18.1862C20.2835 18.1456 20.9609 18.1007 21.6413 18.0556L21.6418 18.0556C23.1011 17.9589 24.5742 17.8613 26.0472 17.8033V21.2495L15.9816 22.0153V0.870182H26.0472V4.444H19.6104V9.29418ZM35.7672 4.48655H39.5256C39.5256 4.48655 39.5256 0.870182 39.5688 0.870182H28.38V4.48655H32.1384V20.9942C33.3048 20.9516 34.5576 20.9516 35.7672 20.9516V4.48655ZM45.444 9.03891H50.412V12.6127H45.444V20.7389H41.8584V0.870182H52.0104V4.444H45.444V9.03891ZM61.696 17.7616C60.4467 17.6893 59.1878 17.6164 57.9288 17.5905V0.870182H54.3V20.9516C57.6264 21.0367 60.8664 21.2069 64.1064 21.4196V17.8884C63.3087 17.8549 62.5044 17.8084 61.696 17.7616ZM68.3997 21.7533L68.3999 21.7533L68.3999 21.7534C69.1783 21.7997 69.9688 21.8468 70.7592 21.9302V0.870182H67.1736V21.6749C67.5777 21.7044 67.987 21.7288 68.3997 21.7533ZM82.0344 11.7618L86.6568 0.870182H82.6392L80.0904 6.86909L77.7144 0.870182H73.8264L78.06 11.6342L73.3944 22.1004C73.9128 22.1684 74.4312 22.2229 74.9496 22.2774C75.7272 22.359 76.5048 22.4407 77.2824 22.5684L79.9608 16.4844L82.5528 23.1215C83.037 23.196 83.5158 23.2757 83.9931 23.3551C84.8785 23.5026 85.7586 23.6491 86.6568 23.7596L82.0344 11.7618Z" fill="white"/>
</svg>
