<svg width="87" height="19" viewBox="0 0 87 19" fill="none" xmlns="http://www.w3.org/2000/svg">
<path d="M13.8403 0.659307V10.8126C13.8403 14.197 12.3788 15.6035 8.94001 15.6035C5.5012 15.6035 4.03971 14.197 4.03971 10.8126V0.219772H0.729861C0.428966 0.219772 0.300011 0.351633 0.300011 0.659307V10.9444C0.300011 16.6144 3.82479 18.5923 8.94001 18.5923C14.0552 18.5923 17.58 16.6144 17.58 10.9444V0.219772H14.2702C14.0123 0.219772 13.8403 0.351633 13.8403 0.659307" fill="white"/>
<path d="M61.8546 3.16466C62.1125 3.16466 62.2415 3.07675 62.3275 2.85698L63.2731 0.43954C63.3161 0.307679 63.2731 0.219772 63.1442 0.219772H49.8188C48.5722 0.219772 48.0994 0.615354 48.0994 1.49442V17.2298C48.0994 17.977 48.4433 18.2847 49.4319 18.2847H61.8546C62.1125 18.2847 62.2415 18.1967 62.3275 17.977L63.2731 15.5595C63.3161 15.4277 63.2731 15.3398 63.1442 15.3398H51.7531V12.1312C51.7531 11.0323 52.3549 10.5049 53.9454 10.5049H58.8887C59.1466 10.5049 59.2755 10.417 59.3615 10.1972L60.2642 7.86768C60.3072 7.73582 60.2642 7.64791 60.1352 7.64791H51.7102V3.16466H61.8546" fill="white"/>
<path fill-rule="evenodd" clip-rule="evenodd" d="M40.4481 4.79094C40.4481 6.50512 39.8463 7.95559 38.3848 8.74675C40.3621 9.31815 41.2648 11.1202 41.2218 13.274C41.2218 16.8781 38.7287 18.2847 35.2469 18.2847H26.0051C25.0164 18.2847 24.6725 17.977 24.6725 17.2298V1.49442C24.6725 0.615354 25.1454 0.219772 26.3919 0.219772H33.9573C37.2672 0.219772 40.4481 0.791168 40.4481 4.79094ZM28.3693 3.1207H34.2152C36.1496 3.1207 36.7084 3.86791 36.7084 5.45024C36.7084 6.98861 36.1496 7.77977 34.2152 7.77977H28.3693V3.1207ZM34.903 15.3837H28.3693V12.0872C28.3693 10.9884 28.9711 10.4609 30.5615 10.4609H34.903C36.9663 10.4609 37.5681 11.2961 37.5681 12.9223C37.5681 14.5926 36.9663 15.3837 34.903 15.3837Z" fill="white"/>
<path fill-rule="evenodd" clip-rule="evenodd" d="M82.4445 11.0323L86.3991 17.977C86.4851 18.0649 86.4851 18.2847 86.1842 18.2847H82.8314C82.5835 18.2847 82.4944 18.1628 82.3734 17.9973C82.3685 17.9906 82.3635 17.9838 82.3585 17.977L78.7908 11.384H75.5239C73.9334 11.384 73.3317 11.9114 73.3317 13.0102V18.2847H70.1078C69.8069 18.2847 69.6779 18.1528 69.6779 17.8451V1.49442C69.6779 0.615354 70.1508 0.219772 71.3973 0.219772H78.9627C83.3472 0.219772 86.0123 1.40652 86.0123 5.80187C86.0123 9.18628 84.4218 10.5049 82.4445 11.0323ZM73.3317 8.61489H79.4785C81.7997 8.61489 82.2726 7.69187 82.2726 5.84582C82.2726 4.04373 81.7567 3.1207 79.4785 3.1207H73.3317V8.61489Z" fill="white"/>
</svg>
