<svg width="99" height="29" viewBox="0 0 99 29" fill="none" xmlns="http://www.w3.org/2000/svg">
<path d="M17.7313 2.88C17.3373 1.58897 15.9582 0.893793 14.6776 1.29103C13.397 1.68828 12.7075 3.07862 13.1015 4.36965L19.406 23.9338C19.8493 25.1255 21.1299 25.8207 22.3612 25.4731C23.6418 25.0759 24.4299 23.7352 24.0358 22.4441C24.0358 22.3945 17.7313 2.88 17.7313 2.88" fill="white"/>
<path d="M7.97911 6.10759C7.58508 4.81655 6.20597 4.12138 4.92538 4.51862C3.64478 4.91586 2.95523 6.30621 3.34926 7.59724L9.65373 27.1614C10.097 28.3531 11.3776 29.0483 12.609 28.7007C13.8896 28.3034 14.6776 26.9628 14.2836 25.6717C14.2836 25.6221 7.97911 6.10759 7.97911 6.10759" fill="white"/>
<path d="M25.7104 19.1172C26.991 18.72 27.6806 17.3297 27.2866 16.0386C26.8925 14.7476 25.5134 14.0524 24.2328 14.4497L4.77761 20.7559C3.59552 21.2028 2.90597 22.4938 3.25075 23.7352C3.64478 25.0262 4.97463 25.8207 6.25523 25.4234C6.35373 25.4234 25.7104 19.1172 25.7104 19.1172" fill="white"/>
<path d="M8.81642 24.629C10.097 24.2317 11.7224 23.6855 13.4463 23.0897C13.0522 21.7986 12.5105 20.16 11.9194 18.4221L7.28956 19.9614L8.81642 24.629" fill="white"/>
<path d="M18.6179 21.4014C20.391 20.8055 22.0164 20.309 23.2478 19.8621C22.8537 18.571 22.3119 16.9324 21.7209 15.1945L17.091 16.7338L18.6179 21.4014" fill="white"/>
<path d="M22.509 9.23586C23.7896 8.83862 24.4791 7.44828 24.0851 6.15724C23.691 4.86621 22.3119 4.17103 21.0313 4.56828L1.62538 10.9241C0.443287 11.371 -0.246265 12.6621 0.0985108 13.9034C0.492541 15.2441 1.82239 16.0386 3.10299 15.5917C3.15224 15.5917 22.509 9.23586 22.509 9.23586" fill="white"/>
<path d="M5.66418 14.7476C6.94478 14.3503 8.57015 13.8041 10.294 13.2083C9.70299 11.4207 9.21045 9.78207 8.76716 8.54069L4.13731 10.08L5.66418 14.7476" fill="white"/>
<path d="M15.4164 11.5697C17.1896 10.9738 18.8149 10.4772 20.0463 10.0303C19.4552 8.24276 18.9627 6.60414 18.5194 5.36276L13.8896 6.90207L15.4164 11.5697" fill="white"/>
<path d="M45.3627 8.04414C46.2 8.44138 46.2985 8.68965 45.609 9.98069C44.9194 11.3214 44.7716 11.371 43.8851 11.0234C42.8015 10.5766 41.4716 10.229 40.5851 10.229C39.1567 10.229 38.2209 10.7255 38.2209 11.52C38.2209 14.1021 46.4463 12.7117 46.4463 18.2731C46.4463 21.0538 44.0821 22.891 40.5358 22.891C38.6642 22.891 36.3493 22.2455 34.7731 21.451C33.9851 21.0538 33.9358 20.8055 34.6254 19.4648C35.2164 18.3228 35.4134 18.1738 36.2508 18.5214C37.6299 19.1172 39.3045 19.5641 40.4866 19.5641C41.8164 19.5641 42.6537 19.0179 42.6537 18.2234C42.6537 15.691 34.2806 16.8828 34.2806 11.52C34.2806 8.68966 36.6448 6.7531 40.1418 6.7531C41.8164 6.90207 43.9343 7.39862 45.3627 8.04414" fill="white"/>
<path d="M52.0119 1.48965V22.1462C52.0119 22.4441 51.6672 22.7917 51.2239 22.7917H49.0567C48.5642 22.7917 48.2687 22.4441 48.2687 22.1462V1.48965C48.2687 0.446896 48.5642 0.397241 50.1403 0.397241C51.9134 0.347586 52.0119 0.496551 52.0119 1.48965" fill="white"/>
<path fill-rule="evenodd" clip-rule="evenodd" d="M67.2806 21.9476V13.0593C67.2806 9.18621 64.6702 6.90207 60.5328 6.90207C58.6612 6.90207 56.5925 7.49793 55.1149 8.49103C54.3269 8.98759 54.3269 9.23586 55.1149 10.4772C55.9522 11.7186 56.1 11.7683 56.8881 11.3214C57.8731 10.7255 59.1045 10.3283 60.1388 10.3283C62.306 10.3283 63.5866 11.3214 63.5866 12.96V14.0028C62.5522 13.5559 61.2716 13.3076 59.8925 13.3076C56.1985 13.3076 53.7851 15.2938 53.7851 18.2731C53.7851 21.0538 55.9522 22.9407 59.1537 22.9407C60.8284 22.9407 62.503 22.2455 63.6358 20.9545L63.5866 21.8979C63.5373 22.3945 63.8821 22.7421 64.3746 22.7421H66.4925C66.9358 22.7421 67.2806 22.4441 67.2806 21.9476ZM59.597 19.9614C58.2672 19.9614 57.3806 19.2662 57.3806 18.2234C57.3806 16.9324 58.7105 15.9393 60.6806 15.9393C61.6164 15.9393 62.7 16.0883 63.5373 16.4359V17.8262C62.7 19.1669 61.2224 19.9614 59.597 19.9614Z" fill="white"/>
<path d="M81.909 8.09379C82.697 8.54069 82.697 8.78897 81.8597 10.1297C81.0716 11.371 80.9239 11.4703 80.0373 11.0234C79.397 10.6759 78.3134 10.3779 77.4761 10.3779C74.7672 10.3779 72.994 12.1655 72.994 14.8966C72.994 17.7269 74.7672 19.6138 77.4761 19.6138C78.4119 19.6138 79.594 19.2662 80.3328 18.8193C81.1209 18.3724 81.2687 18.3724 82.106 19.6138C82.8448 20.7559 82.8448 21.0041 82.1552 21.5007C80.9731 22.3448 79.0522 22.9903 77.3776 22.9903C72.403 22.9903 69.0537 19.7628 69.0537 14.9462C69.0537 10.1297 72.403 6.95172 77.4269 6.95172C79.003 6.90207 80.7761 7.39862 81.909 8.09379" fill="white"/>
<path d="M98.2119 20.8055C98.8522 21.6 98.606 21.8979 97.0299 22.4441C95.4537 23.04 95.2075 22.9903 94.6657 22.2455L90.1836 16.2372L88.1642 18.1738V22.0966C88.1642 22.3945 87.8194 22.7421 87.3761 22.7421H85.209C84.7164 22.7421 84.4209 22.3945 84.4209 22.0966V1.48966C84.4209 0.446897 84.7164 0.397242 86.2925 0.397242C88.1149 0.397242 88.1642 0.546207 88.1642 1.48966V13.2083L94.2716 7.29931C94.9612 6.65379 95.306 6.70345 96.5373 7.49793C97.8672 8.34207 97.9657 8.59035 97.3254 9.23586L92.794 13.7048L98.2119 20.8055" fill="white"/>
</svg>
