<svg width="87" height="24" viewBox="0 0 87 24" fill="none" xmlns="http://www.w3.org/2000/svg">
<path fill-rule="evenodd" clip-rule="evenodd" d="M12.9144 2.55566C12.9144 3.44717 12.1368 4.21132 11.2296 4.21132C10.3224 4.21132 9.5448 3.44717 9.5448 2.55566C9.5448 1.66415 10.3224 0.900002 11.2296 0.900002C12.1368 0.900002 12.9144 1.66415 12.9144 2.55566ZM11.2296 5.56981C10.236 5.56981 9.4584 6.33396 9.4584 7.31038C9.4584 8.28679 10.236 9.05095 11.2296 9.05095C12.2232 9.05095 13.0008 8.28679 13.0008 7.31038C13.0008 6.29151 12.2232 5.56981 11.2296 5.56981ZM9.4152 11.9802C9.4152 11.0038 10.236 10.1972 11.2296 10.1972C12.2232 10.1972 13.0872 11.0038 13.044 11.9802C13.044 12.9566 12.2232 13.7632 11.2296 13.7632C10.236 13.7632 9.4152 12.9566 9.4152 11.9802ZM11.2296 14.9094C10.236 14.9094 9.4584 15.6736 9.4584 16.65C9.4584 17.6264 10.236 18.3906 11.2296 18.3906C12.2232 18.3906 13.0008 17.6264 13.0008 16.65C13.0008 15.716 12.2232 14.9094 11.2296 14.9094ZM9.5448 21.3623C9.5448 20.4708 10.3224 19.7066 11.2296 19.7066C12.18 19.7066 12.9144 20.4708 12.9144 21.3623C12.9144 22.2538 12.1368 23.0179 11.2296 23.0179C10.3224 23.0179 9.5448 22.2538 9.5448 21.3623ZM15.8952 5.35755C14.8152 5.35755 13.908 6.24906 13.908 7.31038C13.908 8.3717 14.8152 9.26321 15.8952 9.26321C16.9752 9.26321 17.8824 8.3717 17.8824 7.31038C17.8824 6.24906 16.9752 5.35755 15.8952 5.35755ZM13.8216 12.0226C13.8216 10.8764 14.772 9.98491 15.8952 9.98491C17.0184 9.98491 17.9688 10.8764 17.9688 12.0226C17.9688 13.1689 17.0184 14.0604 15.8952 14.0604C14.7288 14.0604 13.8216 13.1264 13.8216 12.0226ZM15.8952 14.6972C14.8152 14.6972 13.908 15.5887 13.908 16.65C13.908 17.7113 14.8152 18.6028 15.8952 18.6028C16.9752 18.6028 17.8824 17.7113 17.8824 16.65C17.8824 15.5887 16.9752 14.6972 15.8952 14.6972ZM18.4008 11.9802C18.4008 10.7066 19.4808 9.73019 20.6904 9.73019C21.9 9.73019 22.8936 10.7066 22.98 11.9802C22.98 13.2538 21.9864 14.2302 20.6904 14.2302C19.3944 14.2302 18.4008 13.1689 18.4008 11.9802ZM6.5208 5.78208C5.7 5.78208 5.0088 6.46132 5.0088 7.26793C5.0088 8.07453 5.7 8.75378 6.5208 8.75378C7.3416 8.75378 8.0328 8.07453 8.0328 7.26793C8.0328 6.46132 7.3848 5.78208 6.5208 5.78208ZM4.9224 11.9802C4.9224 11.0887 5.6136 10.4094 6.5208 10.4094C7.428 10.4094 8.1192 11.0887 8.1192 11.9802C8.1192 12.8717 7.428 13.5509 6.5208 13.5509C5.6136 13.5509 4.9224 12.8717 4.9224 11.9802ZM6.5208 15.1217C5.7 15.1217 5.0088 15.8009 5.0088 16.6075C5.0088 17.4142 5.7 18.0934 6.5208 18.0934C7.3416 18.0934 8.0328 17.4142 8.0328 16.6075C8.0328 15.8009 7.3848 15.1217 6.5208 15.1217ZM0.429604 12.0226C0.429604 11.2585 1.0344 10.6642 1.812 10.6642C2.5896 10.6642 3.1944 11.2585 3.1944 12.0226C3.1944 12.7868 2.5896 13.3811 1.812 13.3811C1.0344 13.3811 0.429604 12.7868 0.429604 12.0226Z" fill="white"/>
<path d="M40.1736 9.0934C40.0008 9.0934 39.8712 9.26321 39.8712 9.39057V21.15C39.8712 21.3198 40.044 21.4472 40.1736 21.4472H41.5992C41.772 21.4472 41.9016 21.2774 41.9016 21.15V9.39057C41.9016 9.22076 41.7288 9.0934 41.5992 9.0934H40.1736V9.0934Z" fill="white"/>
<path d="M40.9512 4.12642C40.1736 4.12642 39.5688 4.72076 39.5688 5.48491C39.5688 6.24906 40.1736 6.8434 40.9512 6.8434C41.7288 6.8434 42.3336 6.24906 42.3336 5.48491C42.3336 4.72076 41.6856 4.12642 40.9512 4.12642Z" fill="white"/>
<path d="M70.8456 9.0934C70.6728 9.0934 70.5432 9.26321 70.5432 9.39057V21.15C70.5432 21.3198 70.716 21.4472 70.8456 21.4472H72.2712C72.444 21.4472 72.5736 21.2774 72.5736 21.15V9.39057C72.5736 9.22076 72.4008 9.0934 72.2712 9.0934H70.8456V9.0934Z" fill="white"/>
<path d="M71.5368 4.12642C70.7592 4.12642 70.1544 4.72076 70.1544 5.48491C70.1544 6.24906 70.7592 6.8434 71.5368 6.8434C72.3144 6.8434 72.9192 6.24906 72.9192 5.48491C72.9192 4.72076 72.3144 4.12642 71.5368 4.12642Z" fill="white"/>
<path fill-rule="evenodd" clip-rule="evenodd" d="M86.1231 20.1596C86.1142 20.201 86.0924 20.251 86.0394 20.301C86.0394 20.3859 85.9494 20.4708 85.7694 20.4283L85.8383 20.5078C85.8294 20.5112 85.8214 20.5132 85.8144 20.5132H85.6794L85.9944 20.8953H86.1744L85.8383 20.5078C85.8533 20.502 85.8709 20.4923 85.8903 20.4816C85.934 20.4574 85.9867 20.4283 86.0394 20.4283C86.1294 20.4283 86.1294 20.3434 86.1294 20.2585C86.1294 20.2236 86.1294 20.1887 86.1231 20.1596ZM85.4994 20.5132V20.3859V20.0038H85.8144C85.9044 20.0038 85.9944 20.0038 86.0394 20.0887C86.0924 20.0887 86.1142 20.1181 86.1231 20.1596C86.1294 20.1308 86.1294 20.1061 86.1294 20.0887V20.0038C86.1294 20.0038 86.1294 19.9189 86.0394 19.9189C86.0394 19.9189 85.9494 19.834 85.8594 19.834H85.6794H85.2744V20.8953H85.4544V20.5132H85.4994Z" fill="#8C98A4"/>
<path fill-rule="evenodd" clip-rule="evenodd" d="M84.7128 20.3859C84.7128 19.8764 85.188 19.4094 85.7064 19.4094C86.268 19.4094 86.7 19.834 86.7 20.3859C86.7 20.8953 86.2248 21.3623 85.7064 21.3623C85.188 21.3623 84.7128 20.8953 84.7128 20.3859ZM84.7992 20.3859C84.7992 20.8953 85.188 21.2774 85.7064 21.2774C86.1816 21.2774 86.6136 20.8953 86.6136 20.3859C86.6136 19.8764 86.2248 19.4943 85.7064 19.4943C85.188 19.4943 84.7992 19.8764 84.7992 20.3859Z" fill="#8C98A4"/>
<path d="M52.0536 11.0038C52.2264 11.0038 52.356 10.834 52.356 10.7066V9.30567C52.356 9.13586 52.1832 9.0085 52.0536 9.0085H48.9864V4.5085C48.9864 4.33869 48.8136 4.21133 48.684 4.21133H47.2584C47.0856 4.21133 46.956 4.38114 46.956 4.5085V9.0085H45.444C45.2712 9.0085 45.1416 9.17831 45.1416 9.30567V10.7066C45.1416 10.8764 45.3144 11.0038 45.444 11.0038H46.956V17.7962C46.956 19.8764 48.3816 21.2349 50.4552 21.2349H51.9672C52.14 21.2349 52.2696 21.0651 52.2696 20.9377V19.5368C52.2696 19.367 52.0968 19.2396 51.9672 19.2396H50.6712C49.6776 19.2396 48.9864 18.5604 48.9864 17.4991V10.9613H52.0536V11.0038V11.0038Z" fill="white"/>
<path d="M82.38 11.0038C82.5528 11.0038 82.6824 10.834 82.6824 10.7066V9.30567C82.6824 9.13586 82.5096 9.0085 82.38 9.0085H79.3128V4.5085C79.3128 4.33869 79.14 4.21133 79.0104 4.21133H77.5848C77.412 4.21133 77.2824 4.38114 77.2824 4.5085V9.0085H75.7704C75.5976 9.0085 75.468 9.17831 75.468 9.30567V10.7066C75.468 10.8764 75.6408 11.0038 75.7704 11.0038H77.2824V17.7962C77.2824 19.8764 78.708 21.2349 80.7816 21.2349H82.2936C82.4664 21.2349 82.596 21.0651 82.596 20.9377V19.5368C82.596 19.367 82.4232 19.2396 82.2936 19.2396H80.9112C79.9176 19.2396 79.2264 18.5604 79.2264 17.4991V10.9613H82.3368L82.38 11.0038V11.0038Z" fill="white"/>
<path d="M31.1016 11.0038V21.0226C31.1016 21.1925 31.2744 21.3198 31.404 21.3198H32.8296C33.0024 21.3198 33.132 21.15 33.132 21.0226V11.0038H36.5016C36.6744 11.0038 36.804 10.834 36.804 10.7066V9.30567C36.804 9.13585 36.6312 9.0085 36.5016 9.0085H33.132V6.37642C33.132 5.3151 33.9096 4.5934 34.8168 4.5934H36.5016C36.6744 4.5934 36.804 4.42359 36.804 4.29623V2.89529C36.804 2.72548 36.6312 2.59812 36.5016 2.59812H34.9032C32.7864 2.59812 31.1016 4.33868 31.1016 6.33397V9.0085H29.5896C29.4168 9.0085 29.2872 9.17831 29.2872 9.30567V10.7066C29.2872 10.8764 29.46 11.0038 29.5896 11.0038H31.1016V11.0038Z" fill="white"/>
<path fill-rule="evenodd" clip-rule="evenodd" d="M61.6008 8.62642C63.2856 8.62642 64.884 9.30566 66.0072 10.4943C67.1304 11.683 67.7352 13.3387 67.7352 15.1642C67.7352 19.7066 64.5816 21.7443 61.5576 21.7443C58.4904 21.7443 55.38 19.7491 55.38 15.1642V2.81038C55.38 2.68302 55.5096 2.51321 55.6824 2.51321H57.108C57.2376 2.51321 57.4104 2.64057 57.4104 2.81038V10.2821C58.404 9.30566 60.0024 8.62642 61.6008 8.62642ZM57.3672 15.2066C57.3672 17.4566 58.4904 19.834 61.5576 19.834C64.6248 19.834 65.7048 17.4566 65.748 15.2066C65.748 12.4896 64.0632 10.6217 61.5576 10.6217C59.052 10.6217 57.3672 12.4472 57.3672 15.2066Z" fill="white"/>
</svg>
