<svg width="87" height="29" viewBox="0 0 87 29" fill="none" xmlns="http://www.w3.org/2000/svg">
<path d="M21.5643 10.213H11.4917V13.183H18.6544C18.2963 17.368 14.8045 19.213 11.5365 19.213C7.32841 19.213 3.65752 15.883 3.65752 11.248C3.65752 6.70301 7.14934 3.19301 11.5365 3.19301C14.9388 3.19301 16.9085 5.35301 16.9085 5.35301L18.9678 3.19301C18.9678 3.19301 16.2818 0.223007 11.4022 0.223007C5.1796 0.178007 0.389545 5.44301 0.389545 11.158C0.389545 16.738 4.911 22.183 11.5813 22.183C17.4457 22.183 21.7433 18.178 21.7433 12.193C21.7433 10.933 21.5643 10.213 21.5643 10.213V10.213Z" fill="white"/>
<path fill-rule="evenodd" clip-rule="evenodd" d="M22.6834 15.028C22.6834 11.248 25.638 8.00801 29.7566 8.00801C33.1589 8.00801 36.8298 10.438 36.8745 15.118C36.8745 19.258 33.7408 22.183 29.8461 22.183C25.5485 22.183 22.6834 18.898 22.6834 15.028ZM33.7408 15.118C33.7408 12.508 31.8159 10.843 29.8014 10.843C27.5183 10.843 25.7723 12.643 25.8171 15.073C25.8171 17.593 27.563 19.393 29.8014 19.393C31.8606 19.393 33.7408 17.728 33.7408 15.118Z" fill="white"/>
<path fill-rule="evenodd" clip-rule="evenodd" d="M38.0832 15.028C38.0832 11.248 41.0378 8.00801 45.1564 8.00801C48.5587 8.00801 52.2295 10.438 52.2743 15.118C52.2743 19.258 49.1406 22.183 45.2459 22.183C40.9483 22.183 38.0832 18.898 38.0832 15.028ZM49.1406 15.118C49.1406 12.508 47.2157 10.843 45.2012 10.843C42.918 10.843 41.1721 12.643 41.2169 15.073C41.2169 17.593 42.9628 19.393 45.2012 19.393C47.2604 19.393 49.1406 17.728 49.1406 15.118Z" fill="white"/>
<path fill-rule="evenodd" clip-rule="evenodd" d="M53.483 15.118C53.483 11.383 56.4376 8.05301 60.2428 8.05301C61.8992 8.05301 63.1527 8.68301 63.9585 9.67301V8.45801H66.9131V21.193C66.9131 26.188 64.048 28.573 60.2876 28.573C56.8405 28.573 54.9156 26.458 53.9755 24.433L56.7062 23.308C57.1091 24.208 58.1835 25.828 60.3323 25.828C62.5707 25.828 64.048 24.343 64.048 21.913V20.518C63.1974 21.463 62.1678 22.228 60.1533 22.228C56.9301 22.228 53.483 19.348 53.483 15.118ZM64.2718 15.163C64.2718 12.463 62.3469 10.843 60.5114 10.843C58.5417 10.843 56.6167 12.418 56.5719 15.208C56.5719 17.773 58.4521 19.438 60.4666 19.438C62.3916 19.438 64.2718 17.953 64.2718 15.163Z" fill="white"/>
<path fill-rule="evenodd" clip-rule="evenodd" d="M73.5833 15.073C73.5833 10.843 76.5827 8.00801 80.1641 8.00801C82.9396 8.00801 85.0436 9.89801 85.9837 12.058L86.4762 13.228L77.0304 17.188C77.6123 18.268 78.5077 19.348 80.4774 19.348C82.2233 19.348 83.2977 18.403 83.9245 17.413L86.3866 19.078C85.3122 20.518 83.432 22.183 80.4774 22.183C76.9408 22.183 73.5833 19.528 73.5833 15.073ZM82.8948 12.283C82.4472 11.428 81.5518 10.753 80.2536 10.753C78.2391 10.753 76.2693 12.868 76.6275 14.938L82.8948 12.283Z" fill="white"/>
<path d="M69.1066 21.778H72.1956V0.898006H69.1066V21.778Z" fill="white"/>
</svg>
