<svg width="13" height="13" viewBox="0 0 13 13" fill="none" xmlns="http://www.w3.org/2000/svg">
<path d="M7.42969 11.418C7.70312 11.1445 7.67578 10.7344 7.42969 10.4609L4.12109 7.34375L11.9688 7.34375C12.3516 7.34375 12.625 7.04297 12.625 6.6875L12.625 5.8125C12.625 5.42969 12.3516 5.15625 11.9688 5.15625L4.12109 5.15625L7.42969 2.01172C7.67578 1.73828 7.67578 1.32812 7.42969 1.05469L6.82813 0.453125C6.55469 0.207031 6.14453 0.207031 5.89844 0.453125L0.566406 5.78516C0.320313 6.03125 0.320313 6.44141 0.566406 6.71484L5.89844 12.0195C6.14453 12.2656 6.55469 12.2656 6.82812 12.0195L7.42969 11.418Z" fill="#183B56"/>
</svg>
