<svg width="36" height="36" viewBox="0 0 36 36" fill="none" xmlns="http://www.w3.org/2000/svg">
<path fill-rule="evenodd" clip-rule="evenodd" d="M18 36C27.9411 36 36 27.9411 36 18C36 8.05887 27.9411 0 18 0C8.05887 0 0 8.05887 0 18C0 27.9411 8.05887 36 18 36Z" fill="#E6F0FC"/>
<path fill-rule="evenodd" clip-rule="evenodd" d="M6.75 10.5H29.5C30.1213 10.5 30.625 11.0037 30.625 11.625V29.25C24.9988 27.7222 24.0884 26.75 18.125 26.75C12.1616 26.75 11.2512 27.7222 5.625 29.25V11.625C5.625 11.0037 6.12868 10.5 6.75 10.5Z" fill="white"/>
<path fill-rule="evenodd" clip-rule="evenodd" d="M30.625 11.8125C30.625 11.1912 30.1213 10.6875 29.5 10.6875H6.75C6.12868 10.6875 5.625 11.1912 5.625 11.8125V11.625C5.625 11.0037 6.12868 10.5 6.75 10.5H29.5C30.1213 10.5 30.625 11.0037 30.625 11.625V11.8125ZM30.625 27.5625V29.25C24.9988 27.7222 24.0884 26.75 18.125 26.75C12.1616 26.75 11.2512 27.7222 5.625 29.25V27.5625C11.2512 26.1875 12.1616 25.3125 18.125 25.3125C24.0884 25.3125 24.9988 26.1875 30.625 27.5625Z" fill="#52ABE2"/>
<path d="M24.8201 26.9293C22.8539 26.4043 21.0268 26.1875 18.125 26.1875C15.2232 26.1875 13.3961 26.4043 11.4299 26.9293C10.8955 27.0719 7.97419 27.9895 6.1875 28.5068V11.625C6.1875 11.3143 6.43934 11.0625 6.75 11.0625H9.37561V9.9375H6.75C5.81802 9.9375 5.0625 10.693 5.0625 11.625V29.9856L5.77241 29.7928C7.3778 29.3569 11.1378 28.1717 11.7201 28.0162C13.5868 27.5178 15.317 27.3125 18.125 27.3125C20.933 27.3125 22.6632 27.5178 24.5299 28.0162C25.1122 28.1717 28.8722 29.3569 30.4776 29.7928L31.1875 29.9856V11.625C31.1875 10.693 30.432 9.9375 29.5 9.9375H26.898V11.0625H29.5C29.8107 11.0625 30.0625 11.3143 30.0625 11.625V28.5068C28.2758 27.9895 25.3545 27.0719 24.8201 26.9293Z" fill="#154E84"/>
<path fill-rule="evenodd" clip-rule="evenodd" d="M9.375 6.75C12.7283 6.75 15.6449 7.58333 18.125 9.25C20.6399 7.58333 23.5565 6.75 26.875 6.75V24.25C23.5676 24.25 20.6509 25.0833 18.125 26.75C15.6242 25.0833 12.7075 24.25 9.375 24.25V6.75Z" fill="white"/>
<path fill-rule="evenodd" clip-rule="evenodd" d="M27.4375 6.1875H26.875C23.5847 6.1875 20.6645 6.98452 18.127 8.57925C15.6197 6.98421 12.6981 6.1875 9.375 6.1875H8.8125V15.5V21.5156V24.8125H9.375C12.5994 24.8125 15.4073 25.6148 17.8131 27.2181L18.1234 27.4249L18.4348 27.2195C20.8665 25.615 23.6753 24.8125 26.875 24.8125H27.4375V12.2871V8.36499V6.75V6.1875ZM9.9375 21.5156V15.5V7.32066C12.9453 7.40864 15.5658 8.20789 17.8113 9.71687L18.1228 9.92626L18.4357 9.71888C20.7136 8.20926 23.3353 7.40969 26.3125 7.32083V21.5156V23.6954C23.2596 23.7819 20.5275 24.5768 18.1264 26.0804C15.745 24.5759 13.0118 23.7812 9.9375 23.6953V21.5156Z" fill="#154E84"/>
<path d="M17.5625 9.25V26.75H18.6875V9.25H17.5625Z" fill="#154E84"/>
<path d="M15.4945 12.3136C14.574 11.8443 13.3173 11.4853 11.7279 11.2436C11.4208 11.1969 11.2097 10.9101 11.2563 10.603C11.303 10.2958 11.5899 10.0847 11.897 10.1314C13.5963 10.3897 14.9646 10.7807 16.0055 11.3114C16.2822 11.4525 16.3922 11.7912 16.2511 12.068C16.11 12.3448 15.7712 12.4547 15.4945 12.3136Z" fill="#FFC200"/>
<path d="M20.5055 12.3136C21.426 11.8443 22.6827 11.4853 24.272 11.2436C24.5792 11.1969 24.7903 10.9101 24.7436 10.603C24.6969 10.2958 24.4101 10.0847 24.1029 10.1314C22.4036 10.3897 21.0353 10.7807 19.9945 11.3114C19.7177 11.4525 19.6078 11.7912 19.7489 12.068C19.89 12.3448 20.2287 12.4547 20.5055 12.3136Z" fill="#FFC200"/>
<path d="M15.4945 16.8136C14.574 16.3443 13.3173 15.9853 11.7279 15.7436C11.4208 15.6969 11.2097 15.4101 11.2563 15.103C11.303 14.7958 11.5899 14.5847 11.897 14.6314C13.5963 14.8897 14.9646 15.2807 16.0055 15.8114C16.2822 15.9525 16.3922 16.2912 16.2511 16.568C16.11 16.8448 15.7712 16.9547 15.4945 16.8136Z" fill="#FFC200"/>
<path d="M20.5055 16.8136C21.426 16.3443 22.6827 15.9853 24.272 15.7436C24.5792 15.6969 24.7903 15.4101 24.7436 15.103C24.6969 14.7958 24.4101 14.5847 24.1029 14.6314C22.4036 14.8897 21.0353 15.2807 19.9945 15.8114C19.7177 15.9525 19.6078 16.2912 19.7489 16.568C19.89 16.8448 20.2287 16.9547 20.5055 16.8136Z" fill="#FFC200"/>
<path d="M15.4945 21.3136C14.574 20.8443 13.3173 20.4853 11.7279 20.2436C11.4208 20.1969 11.2097 19.9101 11.2563 19.603C11.303 19.2958 11.5899 19.0847 11.897 19.1314C13.5963 19.3897 14.9646 19.7807 16.0055 20.3114C16.2822 20.4525 16.3922 20.7912 16.2511 21.068C16.11 21.3448 15.7712 21.4547 15.4945 21.3136Z" fill="#FFC200"/>
<path d="M20.5055 21.3136C21.426 20.8443 22.6827 20.4853 24.272 20.2436C24.5792 20.1969 24.7903 19.9101 24.7436 19.603C24.6969 19.2958 24.4101 19.0847 24.1029 19.1314C22.4036 19.3897 21.0353 19.7807 19.9945 20.3114C19.7177 20.4525 19.6078 20.7912 19.7489 21.068C19.89 21.3448 20.2287 21.4547 20.5055 21.3136Z" fill="#FFC200"/>
</svg>
