<svg width="36" height="36" viewBox="0 0 36 36" fill="none" xmlns="http://www.w3.org/2000/svg">
<path fill-rule="evenodd" clip-rule="evenodd" d="M18 36C27.9411 36 36 27.9411 36 18C36 8.05887 27.9411 0 18 0C8.05887 0 0 8.05887 0 18C0 27.9411 8.05887 36 18 36Z" fill="#E6F0FC"/>
<path d="M9 6.75H27C27.932 6.75 28.6875 7.50552 28.6875 8.4375V23.0625C28.6875 23.9945 27.932 24.75 27 24.75H9C8.06802 24.75 7.3125 23.9945 7.3125 23.0625V8.4375C7.3125 7.50552 8.06802 6.75 9 6.75Z" fill="#154E84"/>
<path d="M9 7.875C8.68934 7.875 8.4375 8.12684 8.4375 8.4375V23.0625C8.4375 23.3732 8.68934 23.625 9 23.625H27C27.3107 23.625 27.5625 23.3732 27.5625 23.0625V8.4375C27.5625 8.12684 27.3107 7.875 27 7.875H9Z" fill="white"/>
<path d="M6.1875 21.9375C6.1875 21.6268 6.43934 21.375 6.75 21.375H29.25C29.5607 21.375 29.8125 21.6268 29.8125 21.9375V23.0625C29.8125 23.9945 29.057 24.75 28.125 24.75H7.875C6.94302 24.75 6.1875 23.9945 6.1875 23.0625V21.9375Z" fill="#154E84"/>
<path d="M7.3125 22.5V23.0625C7.3125 23.3732 7.56434 23.625 7.875 23.625H28.125C28.4357 23.625 28.6875 23.3732 28.6875 23.0625V22.5H7.3125Z" fill="#52ABE2"/>
<path d="M7.875 6.75H28.125C29.057 6.75 29.8125 7.50552 29.8125 8.4375V9.5625C29.8125 9.87316 29.5607 10.125 29.25 10.125H6.75C6.43934 10.125 6.1875 9.87316 6.1875 9.5625V8.4375C6.1875 7.50552 6.94302 6.75 7.875 6.75Z" fill="#154E84"/>
<path d="M28.6875 9V8.4375C28.6875 8.12684 28.4357 7.875 28.125 7.875H7.875C7.56434 7.875 7.3125 8.12684 7.3125 8.4375V9H28.6875Z" fill="#52ABE2"/>
<path d="M18 23.625C18.4181 23.625 18.6901 24.0651 18.5031 24.4391L16.2531 28.9391C16.1578 29.1296 15.9631 29.25 15.75 29.25H13.5C13.0818 29.25 12.8099 28.8099 12.9969 28.4359L15.2469 23.9359C15.3422 23.7454 15.5369 23.625 15.75 23.625H18Z" fill="#154E84"/>
<path d="M16.0977 24.75L14.4102 28.125H15.4024L17.0899 24.75H16.0977Z" fill="#FFC200"/>
<path d="M18 23.625C17.5819 23.625 17.3099 24.0651 17.4969 24.4391L19.7469 28.9391C19.8422 29.1296 20.0369 29.25 20.25 29.25H22.5C22.9182 29.25 23.1901 28.8099 23.0031 28.4359L20.7531 23.9359C20.6578 23.7454 20.4631 23.625 20.25 23.625H18Z" fill="#154E84"/>
<path d="M19.9023 24.75L21.5898 28.125H20.5976L18.9101 24.75H19.9023Z" fill="#FFC200"/>
<path d="M18.2111 17.8767C18.4166 18.0411 18.7085 18.0411 18.9139 17.8767L24.5389 13.3767C24.7815 13.1827 24.8208 12.8287 24.6268 12.5861C24.4327 12.3435 24.0787 12.3042 23.8361 12.4983L18.5625 16.7171L16.1014 14.7483C15.9011 14.588 15.6178 14.5836 15.4125 14.7375L10.9125 18.1125C10.664 18.2989 10.6136 18.6515 10.8 18.9C10.9864 19.1485 11.339 19.1989 11.5875 19.0125L15.7389 15.899L18.2111 17.8767Z" fill="#154E84"/>
<path d="M23.625 13.5V15.75C23.625 16.0607 23.8768 16.3125 24.1875 16.3125C24.4982 16.3125 24.75 16.0607 24.75 15.75V12.9375C24.75 12.6268 24.4982 12.375 24.1875 12.375H21.375C21.0643 12.375 20.8125 12.6268 20.8125 12.9375C20.8125 13.2482 21.0643 13.5 21.375 13.5H23.625Z" fill="#154E84"/>
</svg>
