<svg width="36" height="36" viewBox="0 0 36 36" fill="none" xmlns="http://www.w3.org/2000/svg">
<path fill-rule="evenodd" clip-rule="evenodd" d="M18 36C27.9411 36 36 27.9411 36 18C36 8.05887 27.9411 0 18 0C8.05887 0 0 8.05887 0 18C0 27.9411 8.05887 36 18 36Z" fill="#E6F0FC"/>
<path d="M8.4375 9C8.4375 8.68934 8.68934 8.4375 9 8.4375H27C27.3107 8.4375 27.5625 8.68934 27.5625 9V27C27.5625 27.3107 27.3107 27.5625 27 27.5625H9C8.68934 27.5625 8.4375 27.3107 8.4375 27V9Z" fill="#154E84"/>
<path d="M9.5625 9.5625V26.4375H26.4375V9.5625H9.5625Z" fill="white"/>
<path d="M6.1875 6.75C6.1875 6.43934 6.43934 6.1875 6.75 6.1875H11.25C11.5607 6.1875 11.8125 6.43934 11.8125 6.75V11.25C11.8125 11.5607 11.5607 11.8125 11.25 11.8125H6.75C6.43934 11.8125 6.1875 11.5607 6.1875 11.25V6.75Z" fill="#154E84"/>
<path d="M7.3125 7.3125V10.6875H10.6875V7.3125H7.3125Z" fill="#FFC200"/>
<path d="M24.1875 6.75C24.1875 6.43934 24.4393 6.1875 24.75 6.1875H29.25C29.5607 6.1875 29.8125 6.43934 29.8125 6.75V11.25C29.8125 11.5607 29.5607 11.8125 29.25 11.8125H24.75C24.4393 11.8125 24.1875 11.5607 24.1875 11.25V6.75Z" fill="#154E84"/>
<path d="M25.3125 7.3125V10.6875H28.6875V7.3125H25.3125Z" fill="#52ABE2"/>
<path d="M6.1875 24.75C6.1875 24.4393 6.43934 24.1875 6.75 24.1875H11.25C11.5607 24.1875 11.8125 24.4393 11.8125 24.75V29.25C11.8125 29.5607 11.5607 29.8125 11.25 29.8125H6.75C6.43934 29.8125 6.1875 29.5607 6.1875 29.25V24.75Z" fill="#154E84"/>
<path d="M7.3125 25.3125V28.6875H10.6875V25.3125H7.3125Z" fill="#52ABE2"/>
<path d="M24.1875 24.75C24.1875 24.4393 24.4393 24.1875 24.75 24.1875H29.25C29.5607 24.1875 29.8125 24.4393 29.8125 24.75V29.25C29.8125 29.5607 29.5607 29.8125 29.25 29.8125H24.75C24.4393 29.8125 24.1875 29.5607 24.1875 29.25V24.75Z" fill="#154E84"/>
<path d="M25.3125 25.3125V28.6875H28.6875V25.3125H25.3125Z" fill="#FFC200"/>
</svg>
