<svg width="36" height="36" viewBox="0 0 36 36" fill="none" xmlns="http://www.w3.org/2000/svg">
<path fill-rule="evenodd" clip-rule="evenodd" d="M18 36C27.9411 36 36 27.9411 36 18C36 8.05887 27.9411 0 18 0C8.05887 0 0 8.05887 0 18C0 27.9411 8.05887 36 18 36Z" fill="#E6F0FC"/>
<path d="M8.49689 8.18594C8.59217 7.99538 8.78694 7.875 9 7.875H27C27.2131 7.875 27.4078 7.99538 27.5031 8.18594L29.7531 12.6859C29.8408 12.8612 29.8309 13.0695 29.727 13.2356L18.477 31.2356C18.2567 31.5881 17.7433 31.5881 17.523 31.2356L6.273 13.2356C6.16915 13.0695 6.15925 12.8612 6.24689 12.6859L8.49689 8.18594Z" fill="#154E84"/>
<path d="M9.34761 9L7.39417 12.9069L18 29.8762L28.6058 12.9069L26.6523 9H9.34761Z" fill="white"/>
<path fill-rule="evenodd" clip-rule="evenodd" d="M13.5 12.9375L18 30.9375L6.75 12.9375H13.5Z" fill="white"/>
<path fill-rule="evenodd" clip-rule="evenodd" d="M22.5 12.9375L18 30.9375L29.25 12.9375H22.5Z" fill="white"/>
<path fill-rule="evenodd" clip-rule="evenodd" d="M13.5 12.9375L18 30.375L8.4375 12.9375H13.5Z" fill="#52ABE2"/>
<path fill-rule="evenodd" clip-rule="evenodd" d="M22.5 12.9375L18 30.375L27.5625 12.9375H22.5Z" fill="#52ABE2"/>
<path fill-rule="evenodd" clip-rule="evenodd" d="M14.0458 12.8011C13.9831 12.5507 13.7582 12.375 13.5 12.375H6.75004C6.30824 12.375 6.03889 12.861 6.27305 13.2356L17.523 31.2356C17.8626 31.779 18.7012 31.4227 18.5457 30.8011L14.0458 12.8011ZM7.76493 13.5H13.0609L16.5915 27.6225L7.76493 13.5Z" fill="#154E84"/>
<path fill-rule="evenodd" clip-rule="evenodd" d="M29.2514 12.375H22.5014C22.2432 12.375 22.0183 12.5507 21.9557 12.8011L17.4557 30.8011C17.3003 31.4227 18.1388 31.779 18.4784 31.2356L29.7284 13.2356C29.9625 12.861 29.6932 12.375 29.2514 12.375ZM22.9405 13.5H28.2365L19.4099 27.6225L22.9405 13.5Z" fill="#154E84"/>
<path d="M8.49688 8.18594C8.59216 7.99538 8.78693 7.875 8.99999 7.875H27C27.2131 7.875 27.4078 7.99538 27.5031 8.18594L29.7531 12.6859C29.9401 13.0599 29.6681 13.5 29.25 13.5H6.74999C6.33184 13.5 6.05987 13.0599 6.24688 12.6859L8.49688 8.18594Z" fill="#154E84"/>
<path d="M9.34766 9L7.66016 12.375H28.3399L26.6524 9H9.34766Z" fill="#FFC200"/>
<path d="M13.8978 13.3352C13.6781 13.5549 13.322 13.5549 13.1023 13.3352L8.60228 8.83525C8.24793 8.48089 8.4989 7.875 9.00003 7.875H27C27.5012 7.875 27.7521 8.48089 27.3978 8.83525L22.8978 13.3352C22.6781 13.5549 22.322 13.5549 22.1023 13.3352L18 9.233L13.8978 13.3352Z" fill="#154E84"/>
<path d="M10.358 9L13.5 12.142L16.642 9H10.358Z" fill="white"/>
<path d="M19.358 9L22.5 12.142L25.642 9H19.358Z" fill="white"/>
</svg>
